<?xml version="1.0" encoding="utf-8"?>
<!-- Generator: Adobe Illustrator 16.0.0, SVG Export Plug-In . SVG Version: 6.00 Build 0)  -->
<!DOCTYPE svg PUBLIC "-//W3C//DTD SVG 1.1//EN" "http://www.w3.org/Graphics/SVG/1.1/DTD/svg11.dtd">
<svg version="1.1" id="Layer_1" xmlns="http://www.w3.org/2000/svg" xmlns:xlink="http://www.w3.org/1999/xlink" x="0px" y="0px"
	 width="300px" height="300px" viewBox="0 0 300 300" enable-background="new 0 0 300 300" xml:space="preserve">
<path fill-rule="evenodd" clip-rule="evenodd" fill="#F46F5E" d="M295.464,122.283c-0.699,37.658-5.672,73.805-19.681,108.219
	c-7.836,19.248-17.591,37.412-33.966,51.058c-11.438,9.533-24.355,14.152-39.526,13.871c-36.807-0.68-72.666-6.537-107.1-19.433
	c-26.873-10.063-51.719-23.704-71.073-45.839C5.651,209.04,0.158,184.744,4.699,157.57C14.991,95.986,51.44,54.437,105.539,26.838
	c30.589-15.604,63.46-22.556,97.767-23.53c26.074-0.74,46.416,10.135,62.626,29.578C287.665,58.957,295.489,89.734,295.464,122.283z
	"/>
<path fill-rule="evenodd" clip-rule="evenodd" fill="#FEFEFE" d="M159.29,77.924c24.902,0.685,45.981,10.871,60.89,32.916
	c2.146,3.176,1.938,4.786-1.612,6.709c-8.336,4.515-16.492,9.378-24.56,14.36c-2.691,1.662-3.721,1.053-5.362-1.41
	c-8.862-13.295-25.234-19.004-41.333-14.699c-15.749,4.212-26.873,17.707-27.949,33.908c-1.556,23.406,11.377,40.246,34.117,43.058
	c14.512,1.797,27.034-2.885,35.504-15.527c1.743-2.602,2.845-2.746,5.368-1.242c8.433,5.025,16.951,9.916,25.58,14.596
	c2.755,1.492,3.019,2.664,1.339,5.227c-12.411,18.946-29.878,30.296-52.164,33.3c-25.566,3.445-48.6-3.076-66.42-22.27
	c-21.444-23.097-25.98-50.679-15.831-79.903c9.841-28.339,31.255-43.815,60.659-48.403C150.951,78.006,154.493,78.156,159.29,77.924
	z"/>
</svg>
