<?xml version="1.0" encoding="utf-8"?>
<!-- Generator: Adobe Illustrator 16.0.0, SVG Export Plug-In . SVG Version: 6.00 Build 0)  -->
<!DOCTYPE svg PUBLIC "-//W3C//DTD SVG 1.1//EN" "http://www.w3.org/Graphics/SVG/1.1/DTD/svg11.dtd">
<svg version="1.1" id="Layer_1" xmlns="http://www.w3.org/2000/svg" xmlns:xlink="http://www.w3.org/1999/xlink" x="0px" y="0px"
	 width="148.334px" height="36.5px" viewBox="0 0 148.334 36.5" enable-background="new 0 0 148.334 36.5" xml:space="preserve">
<g>
	<path fill="#272727" d="M20.625,21.047H6.609v9.633h16.383V36H0V1.875h22.922v5.367H6.609v8.602h14.016V21.047z"/>
	<path fill="#272727" d="M32.423,0h14.18v30.703h7.266V36H32.423v-5.297h7.594V5.32h-7.594V0z"/>
	<path fill="#272727" d="M64.003,10.641h13.804v20.062h6.867V36H64.003v-5.297h7.219V15.961h-7.219V10.641z M70.753,4.148
		c0-0.5,0.09-0.965,0.27-1.395s0.434-0.797,0.762-1.102s0.723-0.543,1.184-0.715S73.94,0.68,74.503,0.68
		c1.156,0,2.074,0.324,2.753,0.973c0.68,0.648,1.02,1.48,1.02,2.496s-0.34,1.848-1.02,2.496c-0.679,0.648-1.597,0.973-2.753,0.973
		c-0.562,0-1.074-0.086-1.535-0.258s-0.855-0.41-1.184-0.715s-0.582-0.672-0.762-1.102S70.753,4.648,70.753,4.148z"/>
	<path fill="#272727" d="M109.832,29.039c0-0.391-0.09-0.734-0.27-1.031s-0.5-0.574-0.961-0.832s-1.074-0.496-1.84-0.715
		s-1.734-0.438-2.906-0.656c-1.484-0.297-2.84-0.668-4.066-1.113c-1.227-0.445-2.277-0.984-3.152-1.617s-1.559-1.363-2.051-2.191
		s-0.738-1.781-0.738-2.859c0-1.047,0.25-2.047,0.75-3s1.219-1.789,2.156-2.508s2.078-1.289,3.421-1.711
		c1.344-0.422,2.859-0.633,4.547-0.633c1.766,0,3.352,0.207,4.758,0.621s2.598,0.984,3.574,1.711s1.723,1.59,2.238,2.59
		s0.773,2.086,0.773,3.258h-6.516c0-0.984-0.398-1.809-1.195-2.473s-2.008-0.996-3.633-0.996c-1.516,0-2.66,0.273-3.434,0.82
		s-1.16,1.219-1.16,2.016c0,0.375,0.078,0.723,0.234,1.043s0.434,0.609,0.832,0.867s0.941,0.492,1.629,0.703
		s1.562,0.395,2.625,0.551c1.531,0.25,2.953,0.57,4.266,0.961s2.445,0.895,3.398,1.512s1.699,1.367,2.238,2.25
		s0.809,1.934,0.809,3.152c0,1.125-0.27,2.16-0.809,3.105s-1.305,1.762-2.297,2.449s-2.191,1.223-3.598,1.605
		s-2.977,0.574-4.711,0.574c-1.906,0-3.59-0.25-5.05-0.75c-1.461-0.5-2.684-1.152-3.668-1.957s-1.73-1.719-2.238-2.742
		s-0.762-2.051-0.762-3.082h6.211c0.047,0.688,0.234,1.277,0.562,1.77c0.328,0.492,0.75,0.891,1.265,1.195s1.105,0.527,1.77,0.668
		s1.348,0.211,2.051,0.211c1.609,0,2.836-0.258,3.68-0.773S109.832,29.852,109.832,29.039z"/>
	<path fill="#272727" d="M136.982,36.469c-1.953,0-3.727-0.32-5.32-0.961s-2.961-1.512-4.102-2.613s-2.02-2.398-2.637-3.891
		s-0.926-3.09-0.926-4.793v-0.938c0-1.938,0.305-3.707,0.914-5.309s1.461-2.98,2.555-4.137s2.391-2.055,3.891-2.695
		s3.133-0.961,4.898-0.961c1.828,0,3.457,0.301,4.887,0.902s2.641,1.449,3.633,2.543s1.746,2.41,2.262,3.949
		s0.773,3.238,0.773,5.098v2.766h-17.203c0.125,0.859,0.379,1.645,0.762,2.355s0.871,1.324,1.465,1.84s1.273,0.914,2.039,1.195
		s1.602,0.422,2.508,0.422c0.641,0,1.277-0.062,1.91-0.188s1.238-0.309,1.816-0.551s1.117-0.543,1.617-0.902
		s0.938-0.781,1.312-1.266l3.258,3.516c-0.406,0.578-0.934,1.145-1.582,1.699s-1.414,1.047-2.297,1.477s-1.863,0.777-2.941,1.043
		S138.232,36.469,136.982,36.469z M136.209,15.445c-0.734,0-1.406,0.129-2.016,0.387s-1.145,0.629-1.605,1.113
		s-0.848,1.062-1.16,1.734s-0.547,1.422-0.703,2.25h10.688v-0.516c-0.031-0.688-0.164-1.336-0.398-1.945s-0.57-1.137-1.008-1.582
		s-0.973-0.797-1.605-1.055S137.037,15.445,136.209,15.445z"/>
</g>
</svg>
